<?xml version="1.0" encoding="UTF-8" standalone="no"?>
<!DOCTYPE svg PUBLIC "-//W3C//DTD SVG 1.1//EN"
 "http://www.w3.org/Graphics/SVG/1.1/DTD/svg11.dtd">
<!-- Generated by graphviz version 12.2.1 (20241206.2353)
 -->
<!-- Pages: 1 -->
<svg width="364pt" height="2189pt"
 viewBox="0.00 0.00 364.00 2188.50" xmlns="http://www.w3.org/2000/svg" xmlns:xlink="http://www.w3.org/1999/xlink">
<g id="graph0" class="graph" transform="scale(1 1) rotate(0) translate(36 2152.5)">
<polygon fill="white" stroke="none" points="-36,36 -36,-2152.5 328,-2152.5 328,36 -36,36"/>
<g id="clust1" class="cluster">
<title>cluster_0</title>
<path fill="#ffffff" stroke="#90a4ae" d="M20,-1117.65C20,-1117.65 272,-1117.65 272,-1117.65 278,-1117.65 284,-1123.65 284,-1129.65 284,-1129.65 284,-2096.5 284,-2096.5 284,-2102.5 278,-2108.5 272,-2108.5 272,-2108.5 20,-2108.5 20,-2108.5 14,-2108.5 8,-2102.5 8,-2096.5 8,-2096.5 8,-1129.65 8,-1129.65 8,-1123.65 14,-1117.65 20,-1117.65"/>
<text text-anchor="middle" x="146" y="-2093.1" font-family="Arial Bold" font-size="12.00">Encoder</text>
</g>
<g id="clust2" class="cluster">
<title>cluster_1</title>
<path fill="#ffffff" stroke="#90a4ae" d="M63,-8C63,-8 219,-8 219,-8 225,-8 231,-14 231,-20 231,-20 231,-1097.65 231,-1097.65 231,-1103.65 225,-1109.65 219,-1109.65 219,-1109.65 63,-1109.65 63,-1109.65 57,-1109.65 51,-1103.65 51,-1097.65 51,-1097.65 51,-20 51,-20 51,-14 57,-8 63,-8"/>
<text text-anchor="middle" x="141" y="-1094.25" font-family="Arial Bold" font-size="12.00">Decoder</text>
</g>
<!-- input -->
<g id="node1" class="node">
<title>input</title>
<polygon fill="#f8f9fa" stroke="#e8e8e8" points="188.6,-2066.25 97.4,-2066.25 97.4,-2024.85 194.6,-2024.85 194.6,-2060.25 188.6,-2066.25"/>
<polyline fill="none" stroke="#e8e8e8" points="188.6,-2066.25 188.6,-2060.25"/>
<polyline fill="none" stroke="#e8e8e8" points="194.6,-2060.25 188.6,-2060.25"/>
<text text-anchor="middle" x="146" y="-2048.6" font-family="Arial" font-size="11.00">Input Layer</text>
<text text-anchor="middle" x="146" y="-2035.1" font-family="Arial" font-size="11.00">16×16×3</text>
</g>
<!-- conv1 -->
<g id="node2" class="node">
<title>conv1</title>
<path fill="#e3f2fd" stroke="#e8e8e8" d="M87.65,-1886.65C87.65,-1886.65 204.35,-1886.65 204.35,-1886.65 210.35,-1886.65 216.35,-1892.65 216.35,-1898.65 216.35,-1898.65 216.35,-1958.35 216.35,-1958.35 216.35,-1964.35 210.35,-1970.35 204.35,-1970.35 204.35,-1970.35 87.65,-1970.35 87.65,-1970.35 81.65,-1970.35 75.65,-1964.35 75.65,-1958.35 75.65,-1958.35 75.65,-1898.65 75.65,-1898.65 75.65,-1892.65 81.65,-1886.65 87.65,-1886.65"/>
<text text-anchor="middle" x="146" y="-1952.7" font-family="Arial" font-size="11.00">Conv2D</text>
<polyline fill="none" stroke="#e8e8e8" points="75.65,-1942.45 216.35,-1942.45"/>
<text text-anchor="middle" x="146" y="-1924.8" font-family="Arial" font-size="11.00">filters: 64kernel: 3×3</text>
<polyline fill="none" stroke="#e8e8e8" points="75.65,-1914.55 216.35,-1914.55"/>
<text text-anchor="middle" x="146" y="-1896.9" font-family="Arial" font-size="11.00">BatchNorm + ReLU</text>
</g>
<!-- input&#45;&gt;conv1 -->
<g id="edge1" class="edge">
<title>input&#45;&gt;conv1</title>
<path fill="none" stroke="#2c3e50" stroke-width="1.2" d="M146,-2024.51C146,-2012.25 146,-1995.96 146,-1980.34"/>
<polygon fill="#2c3e50" stroke="#2c3e50" stroke-width="1.2" points="148.8,-1980.56 146,-1972.56 143.2,-1980.56 148.8,-1980.56"/>
</g>
<!-- resblock1 -->
<g id="node3" class="node">
<title>resblock1</title>
<path fill="#f3e5f5" stroke="#e8e8e8" d="M91.03,-1747.95C91.03,-1747.95 200.97,-1747.95 200.97,-1747.95 206.97,-1747.95 212.97,-1753.95 212.97,-1759.95 212.97,-1759.95 212.97,-1819.65 212.97,-1819.65 212.97,-1825.65 206.97,-1831.65 200.97,-1831.65 200.97,-1831.65 91.03,-1831.65 91.03,-1831.65 85.03,-1831.65 79.03,-1825.65 79.03,-1819.65 79.03,-1819.65 79.03,-1759.95 79.03,-1759.95 79.03,-1753.95 85.03,-1747.95 91.03,-1747.95"/>
<text text-anchor="middle" x="146" y="-1814" font-family="Arial" font-size="11.00">3× Residual Block</text>
<polyline fill="none" stroke="#e8e8e8" points="79.03,-1803.75 212.97,-1803.75"/>
<text text-anchor="middle" x="146" y="-1786.1" font-family="Arial" font-size="11.00">filters: 64conv: 3×3</text>
<polyline fill="none" stroke="#e8e8e8" points="79.03,-1775.85 212.97,-1775.85"/>
<text text-anchor="middle" x="146" y="-1758.2" font-family="Arial" font-size="11.00">BatchNorm</text>
</g>
<!-- conv1&#45;&gt;resblock1 -->
<g id="edge2" class="edge">
<title>conv1&#45;&gt;resblock1</title>
<path fill="none" stroke="#2c3e50" stroke-width="1.2" d="M146,-1886.49C146,-1872.29 146,-1856.22 146,-1841.35"/>
<polygon fill="#2c3e50" stroke="#2c3e50" stroke-width="1.2" points="148.8,-1841.6 146,-1833.6 143.2,-1841.6 148.8,-1841.6"/>
</g>
<!-- down1 -->
<g id="node4" class="node">
<title>down1</title>
<path fill="#e3f2fd" stroke="#e8e8e8" d="M91.78,-1637.15C91.78,-1637.15 200.22,-1637.15 200.22,-1637.15 206.22,-1637.15 212.22,-1643.15 212.22,-1649.15 212.22,-1649.15 212.22,-1680.95 212.22,-1680.95 212.22,-1686.95 206.22,-1692.95 200.22,-1692.95 200.22,-1692.95 91.78,-1692.95 91.78,-1692.95 85.78,-1692.95 79.78,-1686.95 79.78,-1680.95 79.78,-1680.95 79.78,-1649.15 79.78,-1649.15 79.78,-1643.15 85.78,-1637.15 91.78,-1637.15"/>
<text text-anchor="middle" x="146" y="-1675.3" font-family="Arial" font-size="11.00">Downsample</text>
<polyline fill="none" stroke="#e8e8e8" points="79.78,-1665.05 212.22,-1665.05"/>
<text text-anchor="middle" x="146" y="-1647.4" font-family="Arial" font-size="11.00">Conv2Dfilters: 128</text>
</g>
<!-- resblock1&#45;&gt;down1 -->
<g id="edge3" class="edge">
<title>resblock1&#45;&gt;down1</title>
<path fill="none" stroke="#2c3e50" stroke-width="1.2" d="M146,-1747.58C146,-1733.24 146,-1717.24 146,-1703.23"/>
<polygon fill="#2c3e50" stroke="#2c3e50" stroke-width="1.2" points="148.8,-1703.26 146,-1695.26 143.2,-1703.26 148.8,-1703.26"/>
</g>
<!-- resblock2 -->
<g id="node5" class="node">
<title>resblock2</title>
<path fill="#f3e5f5" stroke="#e8e8e8" d="M88.03,-1498.45C88.03,-1498.45 203.97,-1498.45 203.97,-1498.45 209.97,-1498.45 215.97,-1504.45 215.97,-1510.45 215.97,-1510.45 215.97,-1570.15 215.97,-1570.15 215.97,-1576.15 209.97,-1582.15 203.97,-1582.15 203.97,-1582.15 88.03,-1582.15 88.03,-1582.15 82.03,-1582.15 76.03,-1576.15 76.03,-1570.15 76.03,-1570.15 76.03,-1510.45 76.03,-1510.45 76.03,-1504.45 82.03,-1498.45 88.03,-1498.45"/>
<text text-anchor="middle" x="146" y="-1564.5" font-family="Arial" font-size="11.00">3× Residual Block</text>
<polyline fill="none" stroke="#e8e8e8" points="76.03,-1554.25 215.97,-1554.25"/>
<text text-anchor="middle" x="146" y="-1536.6" font-family="Arial" font-size="11.00">filters: 128conv: 3×3</text>
<polyline fill="none" stroke="#e8e8e8" points="76.03,-1526.35 215.97,-1526.35"/>
<text text-anchor="middle" x="146" y="-1508.7" font-family="Arial" font-size="11.00">BatchNorm</text>
</g>
<!-- down1&#45;&gt;resblock2 -->
<g id="edge4" class="edge">
<title>down1&#45;&gt;resblock2</title>
<path fill="none" stroke="#2c3e50" stroke-width="1.2" d="M146,-1636.81C146,-1623.59 146,-1607.27 146,-1591.89"/>
<polygon fill="#2c3e50" stroke="#2c3e50" stroke-width="1.2" points="148.8,-1592.28 146,-1584.28 143.2,-1592.28 148.8,-1592.28"/>
</g>
<!-- down2 -->
<g id="node6" class="node">
<title>down2</title>
<path fill="#e3f2fd" stroke="#e8e8e8" d="M91.78,-1387.65C91.78,-1387.65 200.22,-1387.65 200.22,-1387.65 206.22,-1387.65 212.22,-1393.65 212.22,-1399.65 212.22,-1399.65 212.22,-1431.45 212.22,-1431.45 212.22,-1437.45 206.22,-1443.45 200.22,-1443.45 200.22,-1443.45 91.78,-1443.45 91.78,-1443.45 85.78,-1443.45 79.78,-1437.45 79.78,-1431.45 79.78,-1431.45 79.78,-1399.65 79.78,-1399.65 79.78,-1393.65 85.78,-1387.65 91.78,-1387.65"/>
<text text-anchor="middle" x="146" y="-1425.8" font-family="Arial" font-size="11.00">Downsample</text>
<polyline fill="none" stroke="#e8e8e8" points="79.78,-1415.55 212.22,-1415.55"/>
<text text-anchor="middle" x="146" y="-1397.9" font-family="Arial" font-size="11.00">Conv2Dfilters: 256</text>
</g>
<!-- resblock2&#45;&gt;down2 -->
<g id="edge5" class="edge">
<title>resblock2&#45;&gt;down2</title>
<path fill="none" stroke="#2c3e50" stroke-width="1.2" d="M146,-1498.08C146,-1483.74 146,-1467.74 146,-1453.73"/>
<polygon fill="#2c3e50" stroke="#2c3e50" stroke-width="1.2" points="148.8,-1453.76 146,-1445.76 143.2,-1453.76 148.8,-1453.76"/>
</g>
<!-- resblock3 -->
<g id="node7" class="node">
<title>resblock3</title>
<path fill="#f3e5f5" stroke="#e8e8e8" d="M88.03,-1248.95C88.03,-1248.95 203.97,-1248.95 203.97,-1248.95 209.97,-1248.95 215.97,-1254.95 215.97,-1260.95 215.97,-1260.95 215.97,-1320.65 215.97,-1320.65 215.97,-1326.65 209.97,-1332.65 203.97,-1332.65 203.97,-1332.65 88.03,-1332.65 88.03,-1332.65 82.03,-1332.65 76.03,-1326.65 76.03,-1320.65 76.03,-1320.65 76.03,-1260.95 76.03,-1260.95 76.03,-1254.95 82.03,-1248.95 88.03,-1248.95"/>
<text text-anchor="middle" x="146" y="-1315" font-family="Arial" font-size="11.00">3× Residual Block</text>
<polyline fill="none" stroke="#e8e8e8" points="76.03,-1304.75 215.97,-1304.75"/>
<text text-anchor="middle" x="146" y="-1287.1" font-family="Arial" font-size="11.00">filters: 256conv: 3×3</text>
<polyline fill="none" stroke="#e8e8e8" points="76.03,-1276.85 215.97,-1276.85"/>
<text text-anchor="middle" x="146" y="-1259.2" font-family="Arial" font-size="11.00">BatchNorm</text>
</g>
<!-- down2&#45;&gt;resblock3 -->
<g id="edge6" class="edge">
<title>down2&#45;&gt;resblock3</title>
<path fill="none" stroke="#2c3e50" stroke-width="1.2" d="M146,-1387.31C146,-1374.09 146,-1357.77 146,-1342.39"/>
<polygon fill="#2c3e50" stroke="#2c3e50" stroke-width="1.2" points="148.8,-1342.78 146,-1334.78 143.2,-1342.78 148.8,-1342.78"/>
</g>
<!-- dense_mean -->
<g id="node8" class="node">
<title>dense_mean</title>
<path fill="#fff3e0" stroke="#e8e8e8" d="M40.03,-1138.15C40.03,-1138.15 113.97,-1138.15 113.97,-1138.15 119.97,-1138.15 125.97,-1144.15 125.97,-1150.15 125.97,-1150.15 125.97,-1181.95 125.97,-1181.95 125.97,-1187.95 119.97,-1193.95 113.97,-1193.95 113.97,-1193.95 40.03,-1193.95 40.03,-1193.95 34.03,-1193.95 28.03,-1187.95 28.03,-1181.95 28.03,-1181.95 28.03,-1150.15 28.03,-1150.15 28.03,-1144.15 34.03,-1138.15 40.03,-1138.15"/>
<text text-anchor="middle" x="77" y="-1176.3" font-family="Arial" font-size="11.00">Dense → µ</text>
<polyline fill="none" stroke="#e8e8e8" points="28.03,-1166.05 125.97,-1166.05"/>
<text text-anchor="middle" x="77" y="-1148.4" font-family="Arial" font-size="11.00">units: 256</text>
</g>
<!-- resblock3&#45;&gt;dense_mean -->
<g id="edge7" class="edge">
<title>resblock3&#45;&gt;dense_mean</title>
<path fill="none" stroke="#2c3e50" stroke-width="1.2" d="M122.83,-1248.58C114.45,-1233.68 105.07,-1216.99 96.99,-1202.61"/>
<polygon fill="#2c3e50" stroke="#2c3e50" stroke-width="1.2" points="99.65,-1201.63 93.29,-1196.03 94.77,-1204.37 99.65,-1201.63"/>
</g>
<!-- dense_var -->
<g id="node9" class="node">
<title>dense_var</title>
<path fill="#fff3e0" stroke="#e8e8e8" d="M173.78,-1138.15C173.78,-1138.15 252.23,-1138.15 252.23,-1138.15 258.23,-1138.15 264.23,-1144.15 264.23,-1150.15 264.23,-1150.15 264.23,-1181.95 264.23,-1181.95 264.23,-1187.95 258.23,-1193.95 252.23,-1193.95 252.23,-1193.95 173.78,-1193.95 173.78,-1193.95 167.78,-1193.95 161.78,-1187.95 161.78,-1181.95 161.78,-1181.95 161.78,-1150.15 161.78,-1150.15 161.78,-1144.15 167.78,-1138.15 173.78,-1138.15"/>
<text text-anchor="middle" x="213" y="-1176.3" font-family="Arial" font-size="11.00">Dense → σ²</text>
<polyline fill="none" stroke="#e8e8e8" points="161.78,-1166.05 264.23,-1166.05"/>
<text text-anchor="middle" x="213" y="-1148.4" font-family="Arial" font-size="11.00">units: 256</text>
</g>
<!-- resblock3&#45;&gt;dense_var -->
<g id="edge8" class="edge">
<title>resblock3&#45;&gt;dense_var</title>
<path fill="none" stroke="#2c3e50" stroke-width="1.2" d="M168.5,-1248.58C176.56,-1233.82 185.57,-1217.3 193.37,-1203.02"/>
<polygon fill="#2c3e50" stroke="#2c3e50" stroke-width="1.2" points="195.8,-1204.4 197.18,-1196.04 190.89,-1201.72 195.8,-1204.4"/>
</g>
<!-- latent -->
<g id="node10" class="node">
<title>latent</title>
<path fill="#e8f5e9" stroke="#e8e8e8" d="M95.03,-1011.1C95.03,-1011.1 186.97,-1011.1 186.97,-1011.1 192.97,-1011.1 198.97,-1017.1 198.97,-1023.1 198.97,-1023.1 198.97,-1054.9 198.97,-1054.9 198.97,-1060.9 192.97,-1066.9 186.97,-1066.9 186.97,-1066.9 95.03,-1066.9 95.03,-1066.9 89.03,-1066.9 83.03,-1060.9 83.03,-1054.9 83.03,-1054.9 83.03,-1023.1 83.03,-1023.1 83.03,-1017.1 89.03,-1011.1 95.03,-1011.1"/>
<text text-anchor="middle" x="141" y="-1049.25" font-family="Arial" font-size="11.00">Latent Space</text>
<polyline fill="none" stroke="#e8e8e8" points="83.03,-1039 198.97,-1039"/>
<text text-anchor="middle" x="141" y="-1021.35" font-family="Arial" font-size="11.00">dimension: 256</text>
</g>
<!-- dense_mean&#45;&gt;latent -->
<g id="edge9" class="edge">
<title>dense_mean&#45;&gt;latent</title>
<path fill="none" stroke="#2c3e50" stroke-width="1.2" d="M90.89,-1137.92C100.2,-1119.73 112.55,-1095.58 122.67,-1075.82"/>
<polygon fill="#2c3e50" stroke="#2c3e50" stroke-width="1.2" points="125.16,-1077.1 126.31,-1068.7 120.18,-1074.54 125.16,-1077.1"/>
</g>
<!-- dense_var&#45;&gt;latent -->
<g id="edge10" class="edge">
<title>dense_var&#45;&gt;latent</title>
<path fill="none" stroke="#2c3e50" stroke-width="1.2" d="M197.38,-1137.92C186.86,-1119.64 172.88,-1095.36 161.47,-1075.55"/>
<polygon fill="#2c3e50" stroke="#2c3e50" stroke-width="1.2" points="163.92,-1074.19 157.5,-1068.66 159.06,-1076.99 163.92,-1074.19"/>
</g>
<!-- dense_decode -->
<g id="node11" class="node">
<title>dense_decode</title>
<path fill="#fff3e0" stroke="#e8e8e8" d="M85.28,-900.3C85.28,-900.3 196.72,-900.3 196.72,-900.3 202.72,-900.3 208.72,-906.3 208.72,-912.3 208.72,-912.3 208.72,-944.1 208.72,-944.1 208.72,-950.1 202.72,-956.1 196.72,-956.1 196.72,-956.1 85.28,-956.1 85.28,-956.1 79.28,-956.1 73.28,-950.1 73.28,-944.1 73.28,-944.1 73.28,-912.3 73.28,-912.3 73.28,-906.3 79.28,-900.3 85.28,-900.3"/>
<text text-anchor="middle" x="141" y="-938.45" font-family="Arial" font-size="11.00">Dense → Reshape</text>
<polyline fill="none" stroke="#e8e8e8" points="73.28,-928.2 208.72,-928.2"/>
<text text-anchor="middle" x="141" y="-910.55" font-family="Arial" font-size="11.00">units: 4×4×256</text>
</g>
<!-- latent&#45;&gt;dense_decode -->
<g id="edge11" class="edge">
<title>latent&#45;&gt;dense_decode</title>
<path fill="none" stroke="#2c3e50" stroke-width="1.2" d="M141,-1010.83C141,-997.32 141,-980.81 141,-966.18"/>
<polygon fill="#2c3e50" stroke="#2c3e50" stroke-width="1.2" points="143.8,-966.22 141,-958.22 138.2,-966.22 143.8,-966.22"/>
</g>
<!-- resblock4 -->
<g id="node12" class="node">
<title>resblock4</title>
<path fill="#f3e5f5" stroke="#e8e8e8" d="M83.03,-761.6C83.03,-761.6 198.97,-761.6 198.97,-761.6 204.97,-761.6 210.97,-767.6 210.97,-773.6 210.97,-773.6 210.97,-833.3 210.97,-833.3 210.97,-839.3 204.97,-845.3 198.97,-845.3 198.97,-845.3 83.03,-845.3 83.03,-845.3 77.03,-845.3 71.03,-839.3 71.03,-833.3 71.03,-833.3 71.03,-773.6 71.03,-773.6 71.03,-767.6 77.03,-761.6 83.03,-761.6"/>
<text text-anchor="middle" x="141" y="-827.65" font-family="Arial" font-size="11.00">3× Residual Block</text>
<polyline fill="none" stroke="#e8e8e8" points="71.03,-817.4 210.97,-817.4"/>
<text text-anchor="middle" x="141" y="-799.75" font-family="Arial" font-size="11.00">filters: 256conv: 3×3</text>
<polyline fill="none" stroke="#e8e8e8" points="71.03,-789.5 210.97,-789.5"/>
<text text-anchor="middle" x="141" y="-771.85" font-family="Arial" font-size="11.00">BatchNorm</text>
</g>
<!-- dense_decode&#45;&gt;resblock4 -->
<g id="edge12" class="edge">
<title>dense_decode&#45;&gt;resblock4</title>
<path fill="none" stroke="#2c3e50" stroke-width="1.2" d="M141,-899.96C141,-886.74 141,-870.42 141,-855.04"/>
<polygon fill="#2c3e50" stroke="#2c3e50" stroke-width="1.2" points="143.8,-855.43 141,-847.43 138.2,-855.43 143.8,-855.43"/>
</g>
<!-- up1 -->
<g id="node13" class="node">
<title>up1</title>
<path fill="#e3f2fd" stroke="#e8e8e8" d="M86.78,-650.8C86.78,-650.8 195.22,-650.8 195.22,-650.8 201.22,-650.8 207.22,-656.8 207.22,-662.8 207.22,-662.8 207.22,-694.6 207.22,-694.6 207.22,-700.6 201.22,-706.6 195.22,-706.6 195.22,-706.6 86.78,-706.6 86.78,-706.6 80.78,-706.6 74.78,-700.6 74.78,-694.6 74.78,-694.6 74.78,-662.8 74.78,-662.8 74.78,-656.8 80.78,-650.8 86.78,-650.8"/>
<text text-anchor="middle" x="141" y="-688.95" font-family="Arial" font-size="11.00">Upsample</text>
<polyline fill="none" stroke="#e8e8e8" points="74.78,-678.7 207.22,-678.7"/>
<text text-anchor="middle" x="141" y="-661.05" font-family="Arial" font-size="11.00">Conv2Dfilters: 128</text>
</g>
<!-- resblock4&#45;&gt;up1 -->
<g id="edge13" class="edge">
<title>resblock4&#45;&gt;up1</title>
<path fill="none" stroke="#2c3e50" stroke-width="1.2" d="M141,-761.23C141,-746.89 141,-730.89 141,-716.88"/>
<polygon fill="#2c3e50" stroke="#2c3e50" stroke-width="1.2" points="143.8,-716.91 141,-708.91 138.2,-716.91 143.8,-716.91"/>
</g>
<!-- resblock5 -->
<g id="node14" class="node">
<title>resblock5</title>
<path fill="#f3e5f5" stroke="#e8e8e8" d="M83.03,-512.1C83.03,-512.1 198.97,-512.1 198.97,-512.1 204.97,-512.1 210.97,-518.1 210.97,-524.1 210.97,-524.1 210.97,-583.8 210.97,-583.8 210.97,-589.8 204.97,-595.8 198.97,-595.8 198.97,-595.8 83.03,-595.8 83.03,-595.8 77.03,-595.8 71.03,-589.8 71.03,-583.8 71.03,-583.8 71.03,-524.1 71.03,-524.1 71.03,-518.1 77.03,-512.1 83.03,-512.1"/>
<text text-anchor="middle" x="141" y="-578.15" font-family="Arial" font-size="11.00">3× Residual Block</text>
<polyline fill="none" stroke="#e8e8e8" points="71.03,-567.9 210.97,-567.9"/>
<text text-anchor="middle" x="141" y="-550.25" font-family="Arial" font-size="11.00">filters: 128conv: 3×3</text>
<polyline fill="none" stroke="#e8e8e8" points="71.03,-540 210.97,-540"/>
<text text-anchor="middle" x="141" y="-522.35" font-family="Arial" font-size="11.00">BatchNorm</text>
</g>
<!-- up1&#45;&gt;resblock5 -->
<g id="edge14" class="edge">
<title>up1&#45;&gt;resblock5</title>
<path fill="none" stroke="#2c3e50" stroke-width="1.2" d="M141,-650.46C141,-637.24 141,-620.92 141,-605.54"/>
<polygon fill="#2c3e50" stroke="#2c3e50" stroke-width="1.2" points="143.8,-605.93 141,-597.93 138.2,-605.93 143.8,-605.93"/>
</g>
<!-- up2 -->
<g id="node15" class="node">
<title>up2</title>
<path fill="#e3f2fd" stroke="#e8e8e8" d="M89.78,-401.3C89.78,-401.3 192.22,-401.3 192.22,-401.3 198.22,-401.3 204.22,-407.3 204.22,-413.3 204.22,-413.3 204.22,-445.1 204.22,-445.1 204.22,-451.1 198.22,-457.1 192.22,-457.1 192.22,-457.1 89.78,-457.1 89.78,-457.1 83.78,-457.1 77.78,-451.1 77.78,-445.1 77.78,-445.1 77.78,-413.3 77.78,-413.3 77.78,-407.3 83.78,-401.3 89.78,-401.3"/>
<text text-anchor="middle" x="141" y="-439.45" font-family="Arial" font-size="11.00">Upsample</text>
<polyline fill="none" stroke="#e8e8e8" points="77.78,-429.2 204.22,-429.2"/>
<text text-anchor="middle" x="141" y="-411.55" font-family="Arial" font-size="11.00">Conv2Dfilters: 64</text>
</g>
<!-- resblock5&#45;&gt;up2 -->
<g id="edge15" class="edge">
<title>resblock5&#45;&gt;up2</title>
<path fill="none" stroke="#2c3e50" stroke-width="1.2" d="M141,-511.73C141,-497.39 141,-481.39 141,-467.38"/>
<polygon fill="#2c3e50" stroke="#2c3e50" stroke-width="1.2" points="143.8,-467.41 141,-459.41 138.2,-467.41 143.8,-467.41"/>
</g>
<!-- resblock6 -->
<g id="node16" class="node">
<title>resblock6</title>
<path fill="#f3e5f5" stroke="#e8e8e8" d="M86.03,-262.6C86.03,-262.6 195.97,-262.6 195.97,-262.6 201.97,-262.6 207.97,-268.6 207.97,-274.6 207.97,-274.6 207.97,-334.3 207.97,-334.3 207.97,-340.3 201.97,-346.3 195.97,-346.3 195.97,-346.3 86.03,-346.3 86.03,-346.3 80.03,-346.3 74.03,-340.3 74.03,-334.3 74.03,-334.3 74.03,-274.6 74.03,-274.6 74.03,-268.6 80.03,-262.6 86.03,-262.6"/>
<text text-anchor="middle" x="141" y="-328.65" font-family="Arial" font-size="11.00">3× Residual Block</text>
<polyline fill="none" stroke="#e8e8e8" points="74.03,-318.4 207.97,-318.4"/>
<text text-anchor="middle" x="141" y="-300.75" font-family="Arial" font-size="11.00">filters: 64conv: 3×3</text>
<polyline fill="none" stroke="#e8e8e8" points="74.03,-290.5 207.97,-290.5"/>
<text text-anchor="middle" x="141" y="-272.85" font-family="Arial" font-size="11.00">BatchNorm</text>
</g>
<!-- up2&#45;&gt;resblock6 -->
<g id="edge16" class="edge">
<title>up2&#45;&gt;resblock6</title>
<path fill="none" stroke="#2c3e50" stroke-width="1.2" d="M141,-400.96C141,-387.74 141,-371.42 141,-356.04"/>
<polygon fill="#2c3e50" stroke="#2c3e50" stroke-width="1.2" points="143.8,-356.43 141,-348.43 138.2,-356.43 143.8,-356.43"/>
</g>
<!-- conv_final -->
<g id="node17" class="node">
<title>conv_final</title>
<path fill="#e3f2fd" stroke="#e8e8e8" d="M85.65,-123.9C85.65,-123.9 196.35,-123.9 196.35,-123.9 202.35,-123.9 208.35,-129.9 208.35,-135.9 208.35,-135.9 208.35,-195.6 208.35,-195.6 208.35,-201.6 202.35,-207.6 196.35,-207.6 196.35,-207.6 85.65,-207.6 85.65,-207.6 79.65,-207.6 73.65,-201.6 73.65,-195.6 73.65,-195.6 73.65,-135.9 73.65,-135.9 73.65,-129.9 79.65,-123.9 85.65,-123.9"/>
<text text-anchor="middle" x="141" y="-189.95" font-family="Arial" font-size="11.00">Conv2D</text>
<polyline fill="none" stroke="#e8e8e8" points="73.65,-179.7 208.35,-179.7"/>
<text text-anchor="middle" x="141" y="-162.05" font-family="Arial" font-size="11.00">filters: 3kernel: 3×3</text>
<polyline fill="none" stroke="#e8e8e8" points="73.65,-151.8 208.35,-151.8"/>
<text text-anchor="middle" x="141" y="-134.15" font-family="Arial" font-size="11.00">Tanh</text>
</g>
<!-- resblock6&#45;&gt;conv_final -->
<g id="edge17" class="edge">
<title>resblock6&#45;&gt;conv_final</title>
<path fill="none" stroke="#2c3e50" stroke-width="1.2" d="M141,-262.44C141,-248.24 141,-232.17 141,-217.3"/>
<polygon fill="#2c3e50" stroke="#2c3e50" stroke-width="1.2" points="143.8,-217.55 141,-209.55 138.2,-217.55 143.8,-217.55"/>
</g>
<!-- output -->
<g id="node18" class="node">
<title>output</title>
<polygon fill="#f8f9fa" stroke="#e8e8e8" points="187.72,-69.4 88.28,-69.4 88.28,-28 193.72,-28 193.72,-63.4 187.72,-69.4"/>
<polyline fill="none" stroke="#e8e8e8" points="187.72,-69.4 187.72,-63.4"/>
<polyline fill="none" stroke="#e8e8e8" points="193.72,-63.4 187.72,-63.4"/>
<text text-anchor="middle" x="141" y="-51.75" font-family="Arial" font-size="11.00">Output Layer</text>
<text text-anchor="middle" x="141" y="-38.25" font-family="Arial" font-size="11.00">16×16×3</text>
</g>
<!-- conv_final&#45;&gt;output -->
<g id="edge18" class="edge">
<title>conv_final&#45;&gt;output</title>
<path fill="none" stroke="#2c3e50" stroke-width="1.2" d="M141,-123.54C141,-108.95 141,-92.83 141,-79.38"/>
<polygon fill="#2c3e50" stroke="#2c3e50" stroke-width="1.2" points="143.8,-79.51 141,-71.51 138.2,-79.51 143.8,-79.51"/>
</g>
</g>
</svg>
