<?xml version="1.0" encoding="UTF-8" standalone="no"?>
<!DOCTYPE svg PUBLIC "-//W3C//DTD SVG 1.1//EN"
 "http://www.w3.org/Graphics/SVG/1.1/DTD/svg11.dtd">
<!-- Generated by graphviz version 12.2.1 (20241206.2353)
 -->
<!-- Pages: 1 -->
<svg width="179pt" height="1312pt"
 viewBox="0.00 0.00 178.80 1312.40" xmlns="http://www.w3.org/2000/svg" xmlns:xlink="http://www.w3.org/1999/xlink">
<g id="graph0" class="graph" transform="scale(1 1) rotate(0) translate(14.4 1298)">
<polygon fill="white" stroke="none" points="-14.4,14.4 -14.4,-1298 164.4,-1298 164.4,14.4 -14.4,14.4"/>
<g id="clust1" class="cluster">
<title>cluster_0</title>
<path fill="#ffffff" stroke="#90a4ae" d="M23,-683.2C23,-683.2 130,-683.2 130,-683.2 136,-683.2 142,-689.2 142,-695.2 142,-695.2 142,-1263.6 142,-1263.6 142,-1269.6 136,-1275.6 130,-1275.6 130,-1275.6 23,-1275.6 23,-1275.6 17,-1275.6 11,-1269.6 11,-1263.6 11,-1263.6 11,-695.2 11,-695.2 11,-689.2 17,-683.2 23,-683.2"/>
</g>
<g id="clust2" class="cluster">
<title>cluster_1</title>
<path fill="#ffffff" stroke="#90a4ae" d="M20,-8C20,-8 120,-8 120,-8 126,-8 132,-14 132,-20 132,-20 132,-663.2 132,-663.2 132,-669.2 126,-675.2 120,-675.2 120,-675.2 20,-675.2 20,-675.2 14,-675.2 8,-669.2 8,-663.2 8,-663.2 8,-20 8,-20 8,-14 14,-8 20,-8"/>
</g>
<!-- input -->
<g id="node1" class="node">
<title>input</title>
<path fill="#f8f9fa" stroke="#e8e8e8" d="M97.53,-1267.6C97.53,-1267.6 54.48,-1267.6 54.48,-1267.6 48.47,-1267.6 42.48,-1261.6 42.48,-1255.6 42.48,-1255.6 42.48,-1226.8 42.48,-1226.8 42.48,-1220.8 48.48,-1214.8 54.48,-1214.8 54.48,-1214.8 97.53,-1214.8 97.53,-1214.8 103.53,-1214.8 109.53,-1220.8 109.53,-1226.8 109.53,-1226.8 109.53,-1255.6 109.53,-1255.6 109.53,-1261.6 103.53,-1267.6 97.53,-1267.6"/>
<text text-anchor="middle" x="76" y="-1243.7" font-family="Arial" font-size="10.00">Input</text>
<text text-anchor="middle" x="76" y="-1231.7" font-family="Arial" font-size="10.00">16×16×3</text>
</g>
<!-- conv1 -->
<g id="node2" class="node">
<title>conv1</title>
<path fill="#e3f2fd" stroke="#e8e8e8" d="M103.15,-1192.8C103.15,-1192.8 48.85,-1192.8 48.85,-1192.8 42.85,-1192.8 36.85,-1186.8 36.85,-1180.8 36.85,-1180.8 36.85,-1152 36.85,-1152 36.85,-1146 42.85,-1140 48.85,-1140 48.85,-1140 103.15,-1140 103.15,-1140 109.15,-1140 115.15,-1146 115.15,-1152 115.15,-1152 115.15,-1180.8 115.15,-1180.8 115.15,-1186.8 109.15,-1192.8 103.15,-1192.8"/>
<text text-anchor="middle" x="76" y="-1168.9" font-family="Arial" font-size="10.00">Conv + BN</text>
<text text-anchor="middle" x="76" y="-1156.9" font-family="Arial" font-size="10.00">64 filters</text>
</g>
<!-- input&#45;&gt;conv1 -->
<g id="edge1" class="edge">
<title>input&#45;&gt;conv1</title>
<path fill="none" stroke="#2c3e50" stroke-width="0.8" d="M76,-1214.33C76,-1209.72 76,-1204.86 76,-1200.08"/>
<polygon fill="#2c3e50" stroke="#2c3e50" stroke-width="0.8" points="78.1,-1200.4 76,-1194.4 73.9,-1200.4 78.1,-1200.4"/>
</g>
<!-- resblock1 -->
<g id="node3" class="node">
<title>resblock1</title>
<path fill="#f3e5f5" stroke="#e8e8e8" d="M108.4,-1118C108.4,-1118 43.6,-1118 43.6,-1118 37.6,-1118 31.6,-1112 31.6,-1106 31.6,-1106 31.6,-1077.2 31.6,-1077.2 31.6,-1071.2 37.6,-1065.2 43.6,-1065.2 43.6,-1065.2 108.4,-1065.2 108.4,-1065.2 114.4,-1065.2 120.4,-1071.2 120.4,-1077.2 120.4,-1077.2 120.4,-1106 120.4,-1106 120.4,-1112 114.4,-1118 108.4,-1118"/>
<text text-anchor="middle" x="76" y="-1094.1" font-family="Arial" font-size="10.00">ResBlock × 3</text>
<text text-anchor="middle" x="76" y="-1082.1" font-family="Arial" font-size="10.00">64 filters</text>
</g>
<!-- conv1&#45;&gt;resblock1 -->
<g id="edge2" class="edge">
<title>conv1&#45;&gt;resblock1</title>
<path fill="none" stroke="#2c3e50" stroke-width="0.8" d="M76,-1139.53C76,-1134.92 76,-1130.06 76,-1125.28"/>
<polygon fill="#2c3e50" stroke="#2c3e50" stroke-width="0.8" points="78.1,-1125.6 76,-1119.6 73.9,-1125.6 78.1,-1125.6"/>
</g>
<!-- down1 -->
<g id="node4" class="node">
<title>down1</title>
<path fill="#e3f2fd" stroke="#e8e8e8" d="M108.78,-1043.2C108.78,-1043.2 43.22,-1043.2 43.22,-1043.2 37.22,-1043.2 31.23,-1037.2 31.23,-1031.2 31.23,-1031.2 31.23,-1002.4 31.23,-1002.4 31.23,-996.4 37.23,-990.4 43.23,-990.4 43.23,-990.4 108.78,-990.4 108.78,-990.4 114.78,-990.4 120.78,-996.4 120.78,-1002.4 120.78,-1002.4 120.78,-1031.2 120.78,-1031.2 120.78,-1037.2 114.78,-1043.2 108.78,-1043.2"/>
<text text-anchor="middle" x="76" y="-1019.3" font-family="Arial" font-size="10.00">Down + Conv</text>
<text text-anchor="middle" x="76" y="-1007.3" font-family="Arial" font-size="10.00">128 filters</text>
</g>
<!-- resblock1&#45;&gt;down1 -->
<g id="edge3" class="edge">
<title>resblock1&#45;&gt;down1</title>
<path fill="none" stroke="#2c3e50" stroke-width="0.8" d="M76,-1064.73C76,-1060.12 76,-1055.26 76,-1050.48"/>
<polygon fill="#2c3e50" stroke="#2c3e50" stroke-width="0.8" points="78.1,-1050.8 76,-1044.8 73.9,-1050.8 78.1,-1050.8"/>
</g>
<!-- resblock2 -->
<g id="node5" class="node">
<title>resblock2</title>
<path fill="#f3e5f5" stroke="#e8e8e8" d="M108.4,-968.4C108.4,-968.4 43.6,-968.4 43.6,-968.4 37.6,-968.4 31.6,-962.4 31.6,-956.4 31.6,-956.4 31.6,-927.6 31.6,-927.6 31.6,-921.6 37.6,-915.6 43.6,-915.6 43.6,-915.6 108.4,-915.6 108.4,-915.6 114.4,-915.6 120.4,-921.6 120.4,-927.6 120.4,-927.6 120.4,-956.4 120.4,-956.4 120.4,-962.4 114.4,-968.4 108.4,-968.4"/>
<text text-anchor="middle" x="76" y="-944.5" font-family="Arial" font-size="10.00">ResBlock × 3</text>
<text text-anchor="middle" x="76" y="-932.5" font-family="Arial" font-size="10.00">128 filters</text>
</g>
<!-- down1&#45;&gt;resblock2 -->
<g id="edge4" class="edge">
<title>down1&#45;&gt;resblock2</title>
<path fill="none" stroke="#2c3e50" stroke-width="0.8" d="M76,-989.93C76,-985.32 76,-980.46 76,-975.68"/>
<polygon fill="#2c3e50" stroke="#2c3e50" stroke-width="0.8" points="78.1,-976 76,-970 73.9,-976 78.1,-976"/>
</g>
<!-- down2 -->
<g id="node6" class="node">
<title>down2</title>
<path fill="#e3f2fd" stroke="#e8e8e8" d="M108.78,-893.6C108.78,-893.6 43.22,-893.6 43.22,-893.6 37.22,-893.6 31.23,-887.6 31.23,-881.6 31.23,-881.6 31.23,-852.8 31.23,-852.8 31.23,-846.8 37.23,-840.8 43.23,-840.8 43.23,-840.8 108.78,-840.8 108.78,-840.8 114.78,-840.8 120.78,-846.8 120.78,-852.8 120.78,-852.8 120.78,-881.6 120.78,-881.6 120.78,-887.6 114.78,-893.6 108.78,-893.6"/>
<text text-anchor="middle" x="76" y="-869.7" font-family="Arial" font-size="10.00">Down + Conv</text>
<text text-anchor="middle" x="76" y="-857.7" font-family="Arial" font-size="10.00">256 filters</text>
</g>
<!-- resblock2&#45;&gt;down2 -->
<g id="edge5" class="edge">
<title>resblock2&#45;&gt;down2</title>
<path fill="none" stroke="#2c3e50" stroke-width="0.8" d="M76,-915.13C76,-910.52 76,-905.66 76,-900.88"/>
<polygon fill="#2c3e50" stroke="#2c3e50" stroke-width="0.8" points="78.1,-901.2 76,-895.2 73.9,-901.2 78.1,-901.2"/>
</g>
<!-- resblock3 -->
<g id="node7" class="node">
<title>resblock3</title>
<path fill="#f3e5f5" stroke="#e8e8e8" d="M108.4,-818.8C108.4,-818.8 43.6,-818.8 43.6,-818.8 37.6,-818.8 31.6,-812.8 31.6,-806.8 31.6,-806.8 31.6,-778 31.6,-778 31.6,-772 37.6,-766 43.6,-766 43.6,-766 108.4,-766 108.4,-766 114.4,-766 120.4,-772 120.4,-778 120.4,-778 120.4,-806.8 120.4,-806.8 120.4,-812.8 114.4,-818.8 108.4,-818.8"/>
<text text-anchor="middle" x="76" y="-794.9" font-family="Arial" font-size="10.00">ResBlock × 3</text>
<text text-anchor="middle" x="76" y="-782.9" font-family="Arial" font-size="10.00">256 filters</text>
</g>
<!-- down2&#45;&gt;resblock3 -->
<g id="edge6" class="edge">
<title>down2&#45;&gt;resblock3</title>
<path fill="none" stroke="#2c3e50" stroke-width="0.8" d="M76,-840.33C76,-835.72 76,-830.86 76,-826.08"/>
<polygon fill="#2c3e50" stroke="#2c3e50" stroke-width="0.8" points="78.1,-826.4 76,-820.4 73.9,-826.4 78.1,-826.4"/>
</g>
<!-- dense_mean -->
<g id="node8" class="node">
<title>dense_mean</title>
<path fill="#fff3e0" stroke="#e8e8e8" d="M61,-744C61,-744 31,-744 31,-744 25,-744 19,-738 19,-732 19,-732 19,-703.2 19,-703.2 19,-697.2 25,-691.2 31,-691.2 31,-691.2 61,-691.2 61,-691.2 67,-691.2 73,-697.2 73,-703.2 73,-703.2 73,-732 73,-732 73,-738 67,-744 61,-744"/>
<text text-anchor="middle" x="46" y="-720.1" font-family="Arial" font-size="10.00">µ</text>
<text text-anchor="middle" x="46" y="-708.1" font-family="Arial" font-size="10.00">256</text>
</g>
<!-- resblock3&#45;&gt;dense_mean -->
<g id="edge7" class="edge">
<title>resblock3&#45;&gt;dense_mean</title>
<path fill="none" stroke="#2c3e50" stroke-width="0.8" d="M65.34,-765.53C63.39,-760.81 61.34,-755.83 59.33,-750.95"/>
<polygon fill="#2c3e50" stroke="#2c3e50" stroke-width="0.8" points="61.32,-750.26 57.09,-745.51 57.43,-751.86 61.32,-750.26"/>
</g>
<!-- dense_var -->
<g id="node9" class="node">
<title>dense_var</title>
<path fill="#fff3e0" stroke="#e8e8e8" d="M122,-744C122,-744 92,-744 92,-744 86,-744 80,-738 80,-732 80,-732 80,-703.2 80,-703.2 80,-697.2 86,-691.2 92,-691.2 92,-691.2 122,-691.2 122,-691.2 128,-691.2 134,-697.2 134,-703.2 134,-703.2 134,-732 134,-732 134,-738 128,-744 122,-744"/>
<text text-anchor="middle" x="107" y="-720.1" font-family="Arial" font-size="10.00">σ²</text>
<text text-anchor="middle" x="107" y="-708.1" font-family="Arial" font-size="10.00">256</text>
</g>
<!-- resblock3&#45;&gt;dense_var -->
<g id="edge8" class="edge">
<title>resblock3&#45;&gt;dense_var</title>
<path fill="none" stroke="#2c3e50" stroke-width="0.8" d="M87.02,-765.53C89.03,-760.81 91.15,-755.83 93.23,-750.95"/>
<polygon fill="#2c3e50" stroke="#2c3e50" stroke-width="0.8" points="95.13,-751.85 95.54,-745.5 91.26,-750.2 95.13,-751.85"/>
</g>
<!-- latent -->
<g id="node10" class="node">
<title>latent</title>
<path fill="#e8f5e9" stroke="#e8e8e8" d="M85.9,-667.2C85.9,-667.2 54.1,-667.2 54.1,-667.2 48.1,-667.2 42.1,-661.2 42.1,-655.2 42.1,-655.2 42.1,-626.4 42.1,-626.4 42.1,-620.4 48.1,-614.4 54.1,-614.4 54.1,-614.4 85.9,-614.4 85.9,-614.4 91.9,-614.4 97.9,-620.4 97.9,-626.4 97.9,-626.4 97.9,-655.2 97.9,-655.2 97.9,-661.2 91.9,-667.2 85.9,-667.2"/>
<text text-anchor="middle" x="70" y="-643.3" font-family="Arial" font-size="10.00">Latent</text>
<text text-anchor="middle" x="70" y="-631.3" font-family="Arial" font-size="10.00">256</text>
</g>
<!-- dense_mean&#45;&gt;latent -->
<g id="edge9" class="edge">
<title>dense_mean&#45;&gt;latent</title>
<path fill="none" stroke="#2c3e50" stroke-width="0.8" d="M54.26,-690.86C55.96,-685.57 57.76,-679.93 59.53,-674.44"/>
<polygon fill="#2c3e50" stroke="#2c3e50" stroke-width="0.8" points="61.52,-675.1 61.36,-668.74 57.52,-673.81 61.52,-675.1"/>
</g>
<!-- dense_var&#45;&gt;latent -->
<g id="edge10" class="edge">
<title>dense_var&#45;&gt;latent</title>
<path fill="none" stroke="#2c3e50" stroke-width="0.8" d="M94.27,-690.86C91.53,-685.33 88.62,-679.43 85.78,-673.71"/>
<polygon fill="#2c3e50" stroke="#2c3e50" stroke-width="0.8" points="87.84,-673.12 83.29,-668.67 84.07,-674.98 87.84,-673.12"/>
</g>
<!-- dense_decode -->
<g id="node11" class="node">
<title>dense_decode</title>
<path fill="#fff3e0" stroke="#e8e8e8" d="M112.15,-592.4C112.15,-592.4 27.85,-592.4 27.85,-592.4 21.85,-592.4 15.85,-586.4 15.85,-580.4 15.85,-580.4 15.85,-551.6 15.85,-551.6 15.85,-545.6 21.85,-539.6 27.85,-539.6 27.85,-539.6 112.15,-539.6 112.15,-539.6 118.15,-539.6 124.15,-545.6 124.15,-551.6 124.15,-551.6 124.15,-580.4 124.15,-580.4 124.15,-586.4 118.15,-592.4 112.15,-592.4"/>
<text text-anchor="middle" x="70" y="-568.5" font-family="Arial" font-size="10.00">Dense + Reshape</text>
<text text-anchor="middle" x="70" y="-556.5" font-family="Arial" font-size="10.00">4×4×256</text>
</g>
<!-- latent&#45;&gt;dense_decode -->
<g id="edge11" class="edge">
<title>latent&#45;&gt;dense_decode</title>
<path fill="none" stroke="#2c3e50" stroke-width="0.8" d="M70,-613.93C70,-609.32 70,-604.46 70,-599.68"/>
<polygon fill="#2c3e50" stroke="#2c3e50" stroke-width="0.8" points="72.1,-600 70,-594 67.9,-600 72.1,-600"/>
</g>
<!-- resblock4 -->
<g id="node12" class="node">
<title>resblock4</title>
<path fill="#f3e5f5" stroke="#e8e8e8" d="M102.4,-517.6C102.4,-517.6 37.6,-517.6 37.6,-517.6 31.6,-517.6 25.6,-511.6 25.6,-505.6 25.6,-505.6 25.6,-476.8 25.6,-476.8 25.6,-470.8 31.6,-464.8 37.6,-464.8 37.6,-464.8 102.4,-464.8 102.4,-464.8 108.4,-464.8 114.4,-470.8 114.4,-476.8 114.4,-476.8 114.4,-505.6 114.4,-505.6 114.4,-511.6 108.4,-517.6 102.4,-517.6"/>
<text text-anchor="middle" x="70" y="-493.7" font-family="Arial" font-size="10.00">ResBlock × 3</text>
<text text-anchor="middle" x="70" y="-481.7" font-family="Arial" font-size="10.00">256 filters</text>
</g>
<!-- dense_decode&#45;&gt;resblock4 -->
<g id="edge12" class="edge">
<title>dense_decode&#45;&gt;resblock4</title>
<path fill="none" stroke="#2c3e50" stroke-width="0.8" d="M70,-539.13C70,-534.52 70,-529.66 70,-524.88"/>
<polygon fill="#2c3e50" stroke="#2c3e50" stroke-width="0.8" points="72.1,-525.2 70,-519.2 67.9,-525.2 72.1,-525.2"/>
</g>
<!-- up1 -->
<g id="node13" class="node">
<title>up1</title>
<path fill="#e3f2fd" stroke="#e8e8e8" d="M96.4,-442.8C96.4,-442.8 43.6,-442.8 43.6,-442.8 37.6,-442.8 31.6,-436.8 31.6,-430.8 31.6,-430.8 31.6,-402 31.6,-402 31.6,-396 37.6,-390 43.6,-390 43.6,-390 96.4,-390 96.4,-390 102.4,-390 108.4,-396 108.4,-402 108.4,-402 108.4,-430.8 108.4,-430.8 108.4,-436.8 102.4,-442.8 96.4,-442.8"/>
<text text-anchor="middle" x="70" y="-418.9" font-family="Arial" font-size="10.00">Up + Conv</text>
<text text-anchor="middle" x="70" y="-406.9" font-family="Arial" font-size="10.00">128 filters</text>
</g>
<!-- resblock4&#45;&gt;up1 -->
<g id="edge13" class="edge">
<title>resblock4&#45;&gt;up1</title>
<path fill="none" stroke="#2c3e50" stroke-width="0.8" d="M70,-464.33C70,-459.72 70,-454.86 70,-450.08"/>
<polygon fill="#2c3e50" stroke="#2c3e50" stroke-width="0.8" points="72.1,-450.4 70,-444.4 67.9,-450.4 72.1,-450.4"/>
</g>
<!-- resblock5 -->
<g id="node14" class="node">
<title>resblock5</title>
<path fill="#f3e5f5" stroke="#e8e8e8" d="M102.4,-368C102.4,-368 37.6,-368 37.6,-368 31.6,-368 25.6,-362 25.6,-356 25.6,-356 25.6,-327.2 25.6,-327.2 25.6,-321.2 31.6,-315.2 37.6,-315.2 37.6,-315.2 102.4,-315.2 102.4,-315.2 108.4,-315.2 114.4,-321.2 114.4,-327.2 114.4,-327.2 114.4,-356 114.4,-356 114.4,-362 108.4,-368 102.4,-368"/>
<text text-anchor="middle" x="70" y="-344.1" font-family="Arial" font-size="10.00">ResBlock × 3</text>
<text text-anchor="middle" x="70" y="-332.1" font-family="Arial" font-size="10.00">128 filters</text>
</g>
<!-- up1&#45;&gt;resblock5 -->
<g id="edge14" class="edge">
<title>up1&#45;&gt;resblock5</title>
<path fill="none" stroke="#2c3e50" stroke-width="0.8" d="M70,-389.53C70,-384.92 70,-380.06 70,-375.28"/>
<polygon fill="#2c3e50" stroke="#2c3e50" stroke-width="0.8" points="72.1,-375.6 70,-369.6 67.9,-375.6 72.1,-375.6"/>
</g>
<!-- up2 -->
<g id="node15" class="node">
<title>up2</title>
<path fill="#e3f2fd" stroke="#e8e8e8" d="M96.4,-293.2C96.4,-293.2 43.6,-293.2 43.6,-293.2 37.6,-293.2 31.6,-287.2 31.6,-281.2 31.6,-281.2 31.6,-252.4 31.6,-252.4 31.6,-246.4 37.6,-240.4 43.6,-240.4 43.6,-240.4 96.4,-240.4 96.4,-240.4 102.4,-240.4 108.4,-246.4 108.4,-252.4 108.4,-252.4 108.4,-281.2 108.4,-281.2 108.4,-287.2 102.4,-293.2 96.4,-293.2"/>
<text text-anchor="middle" x="70" y="-269.3" font-family="Arial" font-size="10.00">Up + Conv</text>
<text text-anchor="middle" x="70" y="-257.3" font-family="Arial" font-size="10.00">64 filters</text>
</g>
<!-- resblock5&#45;&gt;up2 -->
<g id="edge15" class="edge">
<title>resblock5&#45;&gt;up2</title>
<path fill="none" stroke="#2c3e50" stroke-width="0.8" d="M70,-314.73C70,-310.12 70,-305.26 70,-300.48"/>
<polygon fill="#2c3e50" stroke="#2c3e50" stroke-width="0.8" points="72.1,-300.8 70,-294.8 67.9,-300.8 72.1,-300.8"/>
</g>
<!-- resblock6 -->
<g id="node16" class="node">
<title>resblock6</title>
<path fill="#f3e5f5" stroke="#e8e8e8" d="M102.4,-218.4C102.4,-218.4 37.6,-218.4 37.6,-218.4 31.6,-218.4 25.6,-212.4 25.6,-206.4 25.6,-206.4 25.6,-177.6 25.6,-177.6 25.6,-171.6 31.6,-165.6 37.6,-165.6 37.6,-165.6 102.4,-165.6 102.4,-165.6 108.4,-165.6 114.4,-171.6 114.4,-177.6 114.4,-177.6 114.4,-206.4 114.4,-206.4 114.4,-212.4 108.4,-218.4 102.4,-218.4"/>
<text text-anchor="middle" x="70" y="-194.5" font-family="Arial" font-size="10.00">ResBlock × 3</text>
<text text-anchor="middle" x="70" y="-182.5" font-family="Arial" font-size="10.00">64 filters</text>
</g>
<!-- up2&#45;&gt;resblock6 -->
<g id="edge16" class="edge">
<title>up2&#45;&gt;resblock6</title>
<path fill="none" stroke="#2c3e50" stroke-width="0.8" d="M70,-239.93C70,-235.32 70,-230.46 70,-225.68"/>
<polygon fill="#2c3e50" stroke="#2c3e50" stroke-width="0.8" points="72.1,-226 70,-220 67.9,-226 72.1,-226"/>
</g>
<!-- conv_final -->
<g id="node17" class="node">
<title>conv_final</title>
<path fill="#e3f2fd" stroke="#e8e8e8" d="M100.15,-143.6C100.15,-143.6 39.85,-143.6 39.85,-143.6 33.85,-143.6 27.85,-137.6 27.85,-131.6 27.85,-131.6 27.85,-102.8 27.85,-102.8 27.85,-96.8 33.85,-90.8 39.85,-90.8 39.85,-90.8 100.15,-90.8 100.15,-90.8 106.15,-90.8 112.15,-96.8 112.15,-102.8 112.15,-102.8 112.15,-131.6 112.15,-131.6 112.15,-137.6 106.15,-143.6 100.15,-143.6"/>
<text text-anchor="middle" x="70" y="-119.7" font-family="Arial" font-size="10.00">Conv + Tanh</text>
<text text-anchor="middle" x="70" y="-107.7" font-family="Arial" font-size="10.00">3 filters</text>
</g>
<!-- resblock6&#45;&gt;conv_final -->
<g id="edge17" class="edge">
<title>resblock6&#45;&gt;conv_final</title>
<path fill="none" stroke="#2c3e50" stroke-width="0.8" d="M70,-165.13C70,-160.52 70,-155.66 70,-150.88"/>
<polygon fill="#2c3e50" stroke="#2c3e50" stroke-width="0.8" points="72.1,-151.2 70,-145.2 67.9,-151.2 72.1,-151.2"/>
</g>
<!-- output -->
<g id="node18" class="node">
<title>output</title>
<path fill="#f8f9fa" stroke="#e8e8e8" d="M91.53,-68.8C91.53,-68.8 48.48,-68.8 48.48,-68.8 42.47,-68.8 36.48,-62.8 36.48,-56.8 36.48,-56.8 36.48,-28 36.48,-28 36.48,-22 42.48,-16 48.48,-16 48.48,-16 91.53,-16 91.53,-16 97.53,-16 103.53,-22 103.53,-28 103.53,-28 103.53,-56.8 103.53,-56.8 103.53,-62.8 97.53,-68.8 91.53,-68.8"/>
<text text-anchor="middle" x="70" y="-44.9" font-family="Arial" font-size="10.00">Output</text>
<text text-anchor="middle" x="70" y="-32.9" font-family="Arial" font-size="10.00">16×16×3</text>
</g>
<!-- conv_final&#45;&gt;output -->
<g id="edge18" class="edge">
<title>conv_final&#45;&gt;output</title>
<path fill="none" stroke="#2c3e50" stroke-width="0.8" d="M70,-90.33C70,-85.72 70,-80.86 70,-76.08"/>
<polygon fill="#2c3e50" stroke="#2c3e50" stroke-width="0.8" points="72.1,-76.4 70,-70.4 67.9,-76.4 72.1,-76.4"/>
</g>
</g>
</svg>
